#define xmspqdoc_width 30
#define xmspqdoc_height 45
static char xmspqdoc_bits[] = {
   0xff, 0x1f, 0x00, 0x00, 0x01, 0x10, 0x00, 0x00, 0xfd, 0x17, 0x00, 0x00,
   0x05, 0x14, 0x00, 0x00, 0x01, 0x10, 0x00, 0x00, 0x09, 0x12, 0x00, 0x00,
   0xf9, 0x13, 0x00, 0x00, 0xf9, 0x13, 0x00, 0x00, 0x09, 0x12, 0x00, 0x00,
   0x01, 0x10, 0x00, 0x00, 0x05, 0x00, 0x00, 0x00, 0xdd, 0xff, 0xff, 0x1f,
   0x21, 0x00, 0x00, 0x10, 0x17, 0x00, 0x00, 0x10, 0x10, 0x00, 0x00, 0x10,
   0xe8, 0x71, 0x1c, 0x17, 0x28, 0x8a, 0xa2, 0x10, 0x28, 0x8a, 0x82, 0x10,
   0x28, 0x8a, 0x02, 0x13, 0x28, 0x8a, 0x02, 0x14, 0x28, 0x8a, 0x22, 0x14,
   0xe8, 0x71, 0x9c, 0x13, 0x08, 0x00, 0x00, 0x10, 0x08, 0x00, 0x00, 0x10,
   0x08, 0xf0, 0xff, 0x17, 0x08, 0x08, 0x00, 0x12, 0x08, 0xe4, 0x7f, 0x11,
   0x08, 0x04, 0x00, 0x11, 0x08, 0xf4, 0x7f, 0x11, 0x08, 0x02, 0x80, 0x10,
   0x08, 0xfa, 0xbf, 0x00, 0x08, 0x02, 0x80, 0x1e, 0x08, 0xfb, 0xbf, 0x31,
   0xc8, 0x02, 0x80, 0x29, 0x30, 0xfe, 0xff, 0x34, 0x0c, 0x00, 0x00, 0x2a,
   0x02, 0x00, 0x00, 0x35, 0x2b, 0x35, 0xd3, 0x2a, 0x01, 0x00, 0x80, 0x15,
   0x51, 0x04, 0x98, 0x0a, 0x51, 0x00, 0x98, 0x05, 0x01, 0x00, 0x80, 0x02,
   0x01, 0x00, 0x80, 0x01, 0x01, 0x00, 0x80, 0x01, 0xfe, 0xff, 0x7f, 0x00};
