#define xmspq_width 30
#define xmspq_height 45
static char xmspq_bits[] = {
   0xff, 0xff, 0x01, 0x00, 0x01, 0x00, 0x01, 0x00, 0xfd, 0x7f, 0x01, 0x00,
   0x05, 0x40, 0x01, 0x00, 0xf5, 0x5f, 0x01, 0x00, 0xf5, 0x5f, 0x01, 0x00,
   0x15, 0x50, 0x01, 0x00, 0x05, 0x40, 0x01, 0x00, 0x25, 0x48, 0x01, 0x00,
   0xe5, 0x4f, 0x01, 0x00, 0xe5, 0x4f, 0x01, 0x00, 0x25, 0x48, 0x01, 0x00,
   0x05, 0x40, 0x01, 0x00, 0x15, 0x50, 0x01, 0x00, 0xf5, 0x5f, 0x01, 0x00,
   0xf5, 0x5f, 0x01, 0x00, 0x05, 0x40, 0x01, 0x00, 0xfd, 0x7f, 0x01, 0x00,
   0x01, 0x00, 0x01, 0x00, 0xff, 0xff, 0x01, 0x00, 0x00, 0x00, 0x00, 0x00,
   0x00, 0x00, 0x00, 0x00, 0x00, 0x00, 0x00, 0x00, 0x00, 0x00, 0x00, 0x00,
   0x00, 0xf0, 0xff, 0x07, 0x00, 0x08, 0x00, 0x02, 0x00, 0xe4, 0x7f, 0x01,
   0x00, 0x04, 0x00, 0x01, 0x00, 0xf4, 0x7f, 0x01, 0x00, 0x02, 0x80, 0x00,
   0x00, 0xfa, 0xbf, 0x00, 0x00, 0x02, 0x80, 0x1e, 0x00, 0xfb, 0xbf, 0x31,
   0xc0, 0x02, 0x80, 0x29, 0x30, 0xfe, 0xff, 0x34, 0x0c, 0x00, 0x00, 0x2a,
   0x02, 0x00, 0x00, 0x35, 0x2b, 0x35, 0xd3, 0x2a, 0x01, 0x00, 0x80, 0x15,
   0x51, 0x04, 0x98, 0x0a, 0x51, 0x00, 0x98, 0x05, 0x01, 0x00, 0x80, 0x02,
   0x01, 0x00, 0x80, 0x01, 0x01, 0x00, 0x80, 0x01, 0xfe, 0xff, 0x7f, 0x00};
