/* XPM */
static char * xspq_xpm[] = {
"30 45 6 1",
" 	c None",
".	c #BCF9F7",
"+	c #1BF422",
"@	c #000000",
"#	c #FFFFFF",
"$	c #EBEE81",
"..............................",
"..............................",
"..............................",
"..............................",
"....+++++++++.................",
"....+++++++++.................",
"....+.......+.................",
"..............................",
".....+.....+..................",
".....+++++++..................",
".....+++++++..................",
".....+.....+..................",
"..............................",
"....+.......+.................",
"....+++++++++.................",
"....+++++++++.................",
"..............................",
"..............................",
"..............................",
"..............................",
"..............................",
"..............................",
"..............................",
"..............................",
"............@@@@@@@@@@@@@@@...",
"...........@#############@....",
"..........@##@@@@@@@@@@#@.....",
"..........@#############@.....",
"..........@#@@@@@@@@@@@#@.....",
".........@#############@......",
".........@#@@@@@@@@@@@#@......",
".........@#############@.@@@@.",
"........@@#@@@@@@@@@@@#@@$$$@@",
"......@@$@#############@@$$@#@",
"....@@$$$@@@@@@@@@@@@@@@$$@#@@",
"..@@$$$$$$$$$$$$$$$$$$$$$@#@#@",
".@$$$$$$$$$$$$$$$$$$$$$$@#@#@@",
"@@$@$@$$@$@$@@$$@@$$@$@@#@#@#@",
"@$$$$$$$$$$$$$$$$$$$$$$@@#@#@.",
"@$$$@$@$$$@$$$$$$$$@@$$@#@#@..",
"@$$$@$@$$$$$$$$$$$$@@$$@@#@...",
"@$$$$$$$$$$$$$$$$$$$$$$@#@....",
"@$$$$$$$$$$$$$$$$$$$$$$@@.....",
"@$$$$$$$$$$$$$$$$$$$$$$@@.....",
"#@@@@@@@@@@@@@@@@@@@@@@......."};
