/* XPM */
static char * xspuser_xpm[] = {
"30 45 10 1",
" 	c None",
".	c #36F518",
"+	c #F579DE",
"@	c #988734",
"#	c #E3C0C0",
"$	c #000000",
"%	c #FFFFFF",
"&	c #F5182A",
"*	c #F3F579",
"=	c #18F5DB",
".............+++++++++++++++++",
".+++++++++++.+++++++++++++++++",
".+.........+.+++++++++++++++++",
".+.........+.+++++++++++++++++",
".+.+++++++.+.++++@@@@@@@++++++",
".+++++++++++.+++@@@@@@@@@@++++",
".++.+++++.++.++@@@@@@@@@@@@+++",
".++.......++.+@@@@@@@@@@@@@@++",
".++.......++.+@@@@@@@@#@@@@@++",
".++.+++++.+++@@@@@@@@##@@@@@@+",
".++++++++++++@@@##########@@@+",
".+.+++++++.+@@@#$$#####$$##@@@",
".+.........+@@##############@@",
".+.........+@@###$#####$####@@",
".+++++++++++@@##############@@",
"..........+@@@##############@@",
"+++++++++++@@%@############@%@",
"+++++++++++@@@@############@@@",
"+++++++++++@@@@@##$####$###@@@",
"++++++++++++@@@@###&&&&###@@@@",
"++++++++++++@@@@@#########@@@@",
"++++++++++++@@@@@########@@@@@",
"+++++++++++++@@@@@######@@@@@%",
"+++++++++++++@@@@@@####@@@@@@%",
"++++++++++++@@@@@@@@@@@@@@%@@@",
"+++++++++++$*************@%@@@",
"++++++++++$**$$$$$$$$$$*$%@@@@",
"++++++++++$*************$%@@@@",
"++++++++++$*$$$$$$$$$$$*$%@@@@",
"+++++++++$*************$%@@@@@",
"+++++++++$*$$$$$$$$$$$*$%%%%%@",
"+++++++++$*************$%$$$$%",
"++++++++$$*$$$$$$$$$$$*$$===$$",
"++++++$$=$*************$$==$%$",
"++++$$===$$$$$$$$$$$$$$$==$%$$",
"++$$=====================$%$%$",
"+$======================$%$%$$",
"$$=$=$==$=$=$$==$$==$=$$%$%$%$",
"$======================$$%$%$%",
"$===$=$===$========$$==$%$%$%%",
"$===$=$============$$==$$%$%%%",
"$======================$%$%%%%",
"$======================$$%%%%%",
"$======================$$%%%%%",
"%$$$$$$$$$$$$$$$$$$$$$$%%%%%%%"};
